<svg width="5000" height="5000" viewBox="0 0 5000 5000" fill="none" xmlns="http://www.w3.org/2000/svg">
<path d="M1304.92 1086.99C1326.08 1087.02 1345.14 1094.21 1363.24 1104.51L1364.98 1105.52L1365 1105.53C1728.28 1317.06 2094.22 1526.7 2457.47 1739.09C2476.56 1750.21 2489.64 1753.52 2500.51 1753.36C2511.56 1753.2 2524.71 1749.39 2543.88 1738.19L2543.88 1738.18C2905.61 1526.78 3269.63 1317.99 3631.41 1107.43C3650.34 1096.39 3670.44 1088.14 3692.92 1087.66C3715.77 1087.17 3736.61 1094.76 3756.91 1107.01L3768.3 1113.86C3886.06 1184.53 4005.22 1252.93 4125.38 1319.69L4127.22 1320.73C4146.18 1331.53 4161.89 1344.97 4172.21 1363.74C4182.69 1382.81 4185.51 1403.6 4185.44 1424.66V1424.68C4184.09 1797.12 4184.09 2169.45 4185.44 2541.9V2541.92C4185.51 2564.08 4181.89 2584.98 4170.74 2603.83C4159.63 2622.61 4143.2 2635.72 4124.49 2646.3L4124.49 2646.31L4124.48 2646.31C3959.75 2739.43 3794.17 2838.72 3627.17 2930.53L3627.16 2930.54L3627.15 2930.54C3607.57 2941.29 3598.64 2950.99 3593.79 2960.27C3588.67 2970.05 3585.86 2983.57 3586.16 3006.18C3588.88 3189.19 3586.87 3373.78 3587.86 3555.95L3587.96 3573.57V3573.58C3588.09 3593.37 3585.92 3614.07 3576.29 3633.42C3566.33 3653.46 3550.25 3668.42 3529.14 3680.12C3465.64 3715.39 3402.76 3751.76 3339.5 3788.26C3276.33 3824.71 3212.81 3861.26 3148.51 3896.61L3148.5 3896.61C3132.84 3905.22 3113.9 3908.35 3097.62 3908.44C3081.39 3908.52 3062.32 3905.62 3046.52 3896.98L3046.47 3896.96C2918.53 3826.75 2791.62 3751.24 2665.72 3680.11L2665.71 3680.1C2646.63 3669.32 2632.33 3655.89 2622.49 3638.16C2613.18 3621.35 2609.22 3602.99 2606.58 3585.18L2606.58 3585.17L2606.58 3585.16C2598.25 3528.75 2603.9 3479.93 2628.28 3437.9C2652.35 3396.4 2692.03 3366.15 2742.4 3341.26C2890.74 3267.88 3026.83 3178.72 3175.43 3095.87L3175.45 3095.86L3175.46 3095.85C3190.12 3087.71 3196.36 3080.9 3199.66 3074.93C3203.08 3068.73 3205.57 3059.43 3205.38 3042.17V3042.17C3203.21 2851.84 3206.19 2669.9 3203.36 2480.76V2480.76C3202.92 2452.79 3206.27 2426.18 3219.13 2402.06C3232.2 2377.55 3252.93 2359.59 3279.77 2344.8C3447.08 2252.42 3608.69 2155.35 3776.34 2060.71L3776.35 2060.7L3776.36 2060.7C3789.66 2053.19 3795.35 2047.41 3798.25 2042.65C3800.93 2038.26 3803.35 2031.26 3802.87 2016.99V2016.99C3800.5 1945.58 3801.36 1873.57 3801.78 1797.43C3542.26 1947.03 3282.84 2097.81 3022.17 2246.21L3022.17 2246.21C3007.11 2254.8 3000.12 2261.69 2996.33 2267.91C2992.7 2273.86 2989.85 2282.72 2990.03 2299.4C2992.29 2486.16 2990.41 2679.2 2992 2865.44L2992.17 2883.44V2883.45L2992.17 2883.46C2992.37 2905.53 2988.92 2926.53 2977.79 2945.53C2966.69 2964.49 2950.11 2977.74 2931.04 2988.38L2931.04 2988.38C2808.06 3057.01 2680.5 3133.94 2555.55 3202.52C2539.58 3211.33 2520.03 3215.16 2502.69 3215.68C2485.57 3216.18 2465.16 3213.61 2448.26 3204.38C2321.43 3135.07 2192.3 3057.02 2067.65 2987.61V2987.61C2047.15 2976.21 2030.94 2961.82 2020.71 2942.02C2010.77 2922.77 2008.38 2902.02 2008.51 2881.65V2881.59C2010.08 2685.2 2010.42 2488.94 2007.73 2292.75V2292.75C2007.66 2288.19 2005.64 2279.68 2000.94 2270.61C1996.04 2261.16 1991.14 2256.67 1989.64 2255.8L1989.6 2255.77L1989.56 2255.75C1726.87 2101.28 1462.44 1949.67 1198.05 1797.51C1197.77 1881.78 1197.19 1961.32 1199.8 2040.79C1200.52 2041.68 1201.59 2042.87 1203.09 2044.34C1207.93 2049.03 1214.53 2053.84 1220.47 2057.4L1221.65 2058.1L1221.71 2058.13L1221.77 2058.17C1391.24 2157.45 1560.69 2256.35 1731.64 2352.2C1753.46 2364.42 1771.07 2379.47 1782.39 2400.3C1793.56 2420.84 1796.56 2443.24 1796.31 2466.21C1794.43 2656.14 1796.85 2853.56 1794.4 3044.7L1794.4 3044.71V3044.72C1794.17 3061.49 1797.07 3070.17 1800.61 3075.89C1804.36 3081.95 1811.3 3088.67 1826.41 3097.19H1826.41C1910.61 3144.53 1994.2 3192.89 2077.57 3241.1C2161.03 3289.34 2244.28 3337.44 2328.11 3384.43H2328.12C2351.07 3397.29 2367.15 3413.07 2377.61 3433.56C2387.36 3452.68 2390.92 3473.61 2393.59 3493.14H2393.59C2400.94 3546.68 2395.43 3593.32 2371.95 3633.2C2348.7 3672.69 2310.61 3700.8 2262.46 3723.13L2262.45 3723.13L2262.44 3723.14C2158.08 3771.47 2061.63 3835.19 1958.47 3896.49L1958.47 3896.49C1942.16 3906.19 1924.32 3913.55 1904.1 3913.97C1883.63 3914.4 1865.08 3907.64 1847.45 3897.15V3897.15C1723.93 3823.73 1599.45 3751.81 1473.79 3682.03L1473.78 3682.02L1473.77 3682.02C1453.3 3670.64 1436.18 3656.47 1424.91 3636.54C1413.71 3616.75 1410.38 3594.95 1410.58 3572.26V3572.24C1412.36 3381.27 1409.47 3185.97 1412.72 2993.6C1413.04 2974.54 1409.62 2964.37 1405.22 2957.48C1400.51 2950.1 1392.14 2942.48 1375.22 2932.94V2932.94C1293.48 2887 1212.35 2840.04 1131.43 2793.24C1050.44 2746.39 969.631 2699.7 888.221 2654.13L888.207 2654.12L888.192 2654.11C865.383 2641.31 845.564 2625.97 832.135 2604.05C818.559 2581.89 813.804 2556.8 814 2528.75C816.245 2163.91 816.133 1799.05 814 1434.19L813.999 1434.17V1434.15C813.869 1407.45 818.201 1383.13 831.251 1361.56C844.232 1340.11 863.53 1325.22 885.924 1312.96C1006.71 1246.64 1126.02 1177.14 1244.46 1105.99C1263.29 1094.66 1282.98 1086.97 1304.92 1086.99Z" stroke="#FFF82C" stroke-width="68.0119"/>
</svg>
