<svg width="400" height="820" viewBox="0 0 400 820" fill="none" xmlns="http://www.w3.org/2000/svg">
  <!-- Definitions -->
  <defs>
    <clipPath id="screenClip">
      <rect x="25" y="35" width="350" height="750" rx="35"/>
    </clipPath>
    <filter id="shadow">
      <feDropShadow dx="0" dy="10" stdDeviation="20" flood-opacity="0.3"/>
    </filter>
  </defs>
  
  <!-- Phone Frame (Black) -->
  <rect x="15" y="15" width="370" height="790" rx="45" fill="#000" filter="url(#shadow)"/>
  
  <!-- Inner Bezel -->
  <rect x="20" y="20" width="360" height="780" rx="42" fill="#1a1a1a"/>
  
  <!-- Screen Container -->
  <g clip-path="url(#screenClip)">
    <!-- Screen Background -->
    <rect x="25" y="35" width="350" height="750" fill="#FFFFFF"/>
    
    <!-- Status Bar Background (Gray) -->
    <rect x="25" y="35" width="350" height="50" fill="#F6F6F6"/>
    
    <!-- Dynamic Island / Notch -->
    <rect x="155" y="40" width="90" height="30" rx="15" fill="#000"/>
    
    <!-- Status Bar Icons -->
    <g opacity="0.8">
      <!-- Time -->
      <text x="40" y="60" font-family="-apple-system, BlinkMacSystemFont, 'Segoe UI', sans-serif" font-size="13" font-weight="600" fill="#000">12:14</text>
      <!-- Signal -->
      <circle cx="310" cy="55" r="2" fill="#000"/>
      <circle cx="320" cy="55" r="2" fill="#000"/>
      <circle cx="330" cy="55" r="2" fill="#000"/>
      <circle cx="340" cy="55" r="2" fill="#000"/>
      <!-- WiFi Icon -->
      <path d="M 350 50 Q 355 50 360 55" stroke="#000" stroke-width="1.5" fill="none"/>
      <path d="M 353 53 Q 355 53 357 55" stroke="#000" stroke-width="1.5" fill="none"/>
      <!-- Battery -->
      <rect x="360" y="52" width="10" height="6" rx="1" fill="none" stroke="#000" stroke-width="1"/>
      <rect x="370" y="54" width="2" height="2" fill="#000"/>
    </g>
    
    <!-- WhatsApp Header -->
    <rect x="25" y="85" width="350" height="60" fill="#EDEDED"/>
    
    <!-- Header Contact Info -->
    <circle cx="50" cy="115" r="18" fill="#DDD"/>
    <!-- Profile picture placeholder -->
    <image x="32" y="97" width="36" height="36" href="data:image/svg+xml,%3Csvg xmlns='http://www.w3.org/2000/svg' viewBox='0 0 100 100'%3E%3Ccircle cx='50' cy='50' r='50' fill='%23CCC'/%3E%3Ccircle cx='50' cy='40' r='15' fill='%23999'/%3E%3Cpath d='M20,80 Q20,60 50,60 Q80,60 80,80' fill='%23999'/%3E%3C/svg%3E" clip-path="circle()"/>
    
    <text x="80" y="110" font-family="-apple-system, sans-serif" font-size="12" font-weight="600" fill="#000">+94 77 560 3717</text>
    <text x="80" y="125" font-family="-apple-system, sans-serif" font-size="10" fill="#666">Hello! Could you explain how this works?</text>
    
    <!-- Back Arrow -->
    <path d="M 35 115 L 40 110 L 40 120 Z" fill="#128C7E"/>
    
    <!-- Search Bar -->
    <rect x="30" y="155" width="340" height="36" rx="8" fill="#FFF"/>
    <text x="55" y="177" font-family="-apple-system, sans-serif" font-size="14" fill="#999">🔍 Search</text>
    
    <!-- Tabs -->
    <g transform="translate(30, 200)">
      <text x="10" y="0" font-family="-apple-system, sans-serif" font-size="13" font-weight="600" fill="#128C7E">All</text>
      <text x="70" y="0" font-family="-apple-system, sans-serif" font-size="13" fill="#666">Unread</text>
      <text x="145" y="0" font-family="-apple-system, sans-serif" font-size="13" fill="#666">Favorites</text>
      <text x="230" y="0" font-family="-apple-system, sans-serif" font-size="13" fill="#666">Groups</text>
      <!-- Active indicator -->
      <line x1="5" y1="8" x2="25" y2="8" stroke="#128C7E" stroke-width="2"/>
    </g>
    
    <!-- Chat List -->
    <!-- Chat 1 (Active) -->
    <g transform="translate(0, 230)">
      <rect x="25" y="0" width="350" height="72" fill="#F0F0F0"/>
      <circle cx="55" cy="36" r="22" fill="#DDD"/>
      <image x="33" y="14" width="44" height="44" href="data:image/svg+xml,%3Csvg xmlns='http://www.w3.org/2000/svg' viewBox='0 0 100 100'%3E%3Ccircle cx='50' cy='50' r='50' fill='%23CCC'/%3E%3Ccircle cx='50' cy='40' r='15' fill='%23999'/%3E%3Cpath d='M20,80 Q20,60 50,60 Q80,60 80,80' fill='%23999'/%3E%3C/svg%3E" clip-path="circle()"/>
      
      <text x="90" y="28" font-family="-apple-system, sans-serif" font-size="14" font-weight="600" fill="#000">+94 77 560 3717</text>
      <text x="345" y="28" font-family="-apple-system, sans-serif" font-size="11" fill="#128C7E" text-anchor="end">12:13</text>
      <text x="90" y="48" font-family="-apple-system, sans-serif" font-size="12" fill="#666">✓ Thank you for reaching out to</text>
      <text x="90" y="62" font-family="-apple-system, sans-serif" font-size="12" fill="#666">Agent Zappy! We help businesses req...</text>
      <circle cx="355" cy="50" r="9" fill="#25D366"/>
      <text x="355" y="54" font-family="-apple-system, sans-serif" font-size="10" font-weight="600" fill="#FFF" text-anchor="middle">1</text>
    </g>
    
    <!-- Chat 2 -->
    <g transform="translate(0, 302)">
      <rect x="25" y="0" width="350" height="72" fill="#FFF"/>
      <circle cx="55" cy="36" r="22" fill="#E5E5E5"/>
      
      <text x="90" y="28" font-family="-apple-system, sans-serif" font-size="14" font-weight="400" fill="#000">+94 77 555 7076</text>
      <text x="345" y="28" font-family="-apple-system, sans-serif" font-size="11" fill="#999" text-anchor="end">12:12</text>
      <text x="90" y="48" font-family="-apple-system, sans-serif" font-size="12" fill="#999">✓ Agent Zappy is an AI agent that</text>
      <text x="90" y="62" font-family="-apple-system, sans-serif" font-size="12" fill="#999">helps customer inquiries on W...</text>
    </g>
    
    <!-- Chat 3 -->
    <g transform="translate(0, 374)">
      <rect x="25" y="0" width="350" height="72" fill="#FFF"/>
      <circle cx="55" cy="36" r="22" fill="#E5E5E5"/>
      
      <text x="90" y="28" font-family="-apple-system, sans-serif" font-size="14" font-weight="400" fill="#000">+94 71 350 7533</text>
      <text x="345" y="28" font-family="-apple-system, sans-serif" font-size="11" fill="#999" text-anchor="end">12:12</text>
      <text x="90" y="48" font-family="-apple-system, sans-serif" font-size="12" fill="#999">✓ To setup Agent Zappy, start by asking</text>
      <text x="90" y="62" font-family="-apple-system, sans-serif" font-size="12" fill="#999">about their business and how they...</text>
    </g>
    
    <!-- Chat 4 -->
    <g transform="translate(0, 446)">
      <rect x="25" y="0" width="350" height="72" fill="#FFF"/>
      <circle cx="55" cy="36" r="22" fill="#E5E5E5"/>
      <rect x="45" y="26" width="20" height="20" fill="#4285F4" rx="3"/>
      <text x="55" y="40" font-family="-apple-system, sans-serif" font-size="16" font-weight="600" fill="#FFF" text-anchor="middle">✓</text>
      
      <text x="90" y="28" font-family="-apple-system, sans-serif" font-size="14" font-weight="400" fill="#000">+94 76 870 8702</text>
      <text x="345" y="28" font-family="-apple-system, sans-serif" font-size="11" fill="#999" text-anchor="end">12:11</text>
      <text x="90" y="48" font-family="-apple-system, sans-serif" font-size="12" fill="#999">✓ Perfect! Now that we've got you</text>
      <text x="90" y="62" font-family="-apple-system, sans-serif" font-size="12" fill="#999">signed up, can you tell me a bit abo...</text>
    </g>
    
    <!-- Chat 5 -->
    <g transform="translate(0, 518)">
      <rect x="25" y="0" width="350" height="72" fill="#FFF"/>
      <circle cx="55" cy="36" r="22" fill="#DDD"/>
      <image x="33" y="14" width="44" height="44" href="data:image/svg+xml,%3Csvg xmlns='http://www.w3.org/2000/svg' viewBox='0 0 100 100'%3E%3Ccircle cx='50' cy='50' r='50' fill='%23CCC'/%3E%3Ccircle cx='50' cy='40' r='15' fill='%23999'/%3E%3Cpath d='M20,80 Q20,60 50,60 Q80,60 80,80' fill='%23999'/%3E%3C/svg%3E" clip-path="circle()"/>
      
      <text x="90" y="28" font-family="-apple-system, sans-serif" font-size="14" font-weight="400" fill="#000">+94 71 087 4779</text>
      <text x="345" y="28" font-family="-apple-system, sans-serif" font-size="11" fill="#999" text-anchor="end">11:30</text>
      <text x="90" y="48" font-family="-apple-system, sans-serif" font-size="12" fill="#999">✓</text>
    </g>
    
    <!-- Chat 6 -->
    <g transform="translate(0, 590)">
      <rect x="25" y="0" width="350" height="72" fill="#FFF"/>
      <circle cx="55" cy="36" r="22" fill="#E5E5E5"/>
      
      <text x="90" y="28" font-family="-apple-system, sans-serif" font-size="14" font-weight="400" fill="#000">+94 77 200 7949</text>
      <text x="345" y="28" font-family="-apple-system, sans-serif" font-size="11" fill="#999" text-anchor="end">11:20</text>
      <text x="90" y="48" font-family="-apple-system, sans-serif" font-size="12" fill="#999">✓ I just sent the video again! 🎥</text>
      <text x="90" y="62" font-family="-apple-system, sans-serif" font-size="12" fill="#999">Here's how to set it up.</text>
    </g>
    
    <!-- Bottom Navigation Bar -->
    <rect x="25" y="685" width="350" height="100" fill="#F6F6F6"/>
    
    <!-- Bottom Nav Icons -->
    <g transform="translate(0, 720)">
      <!-- Chats Icon -->
      <g transform="translate(65, 0)">
        <path d="M -8,-8 L 8,-8 L 8,8 L 0,8 L -8,0 Z" fill="none" stroke="#128C7E" stroke-width="2"/>
        <circle cx="10" cy="-12" r="7" fill="#FF3B30"/>
        <text x="10" y="-8" font-family="-apple-system, sans-serif" font-size="9" font-weight="600" fill="#FFF" text-anchor="middle">20</text>
        <text x="0" y="25" font-family="-apple-system, sans-serif" font-size="10" fill="#128C7E" text-anchor="middle">Chats</text>
      </g>
      
      <!-- Updates Icon -->
      <g transform="translate(155, 0)">
        <circle cx="0" cy="0" r="10" fill="none" stroke="#999" stroke-width="2"/>
        <circle cx="0" cy="0" r="4" fill="#999"/>
        <text x="0" y="25" font-family="-apple-system, sans-serif" font-size="10" fill="#999" text-anchor="middle">Updates</text>
      </g>
      
      <!-- Communities Icon -->
      <g transform="translate(245, 0)">
        <circle cx="-4" cy="-4" r="5" fill="none" stroke="#999" stroke-width="1.5"/>
        <circle cx="4" cy="-4" r="5" fill="none" stroke="#999" stroke-width="1.5"/>
        <circle cx="0" cy="4" r="5" fill="none" stroke="#999" stroke-width="1.5"/>
        <text x="0" y="25" font-family="-apple-system, sans-serif" font-size="10" fill="#999" text-anchor="middle">Communities</text>
      </g>
      
      <!-- Calls Icon -->
      <g transform="translate(335, 0)">
        <path d="M -6,-6 Q -8,-4 -8,0 Q -8,4 -6,6 L -2,10 Q 2,14 6,10 L 8,8 Q 10,6 8,4 L 4,0 Q 2,-2 4,-4 L 8,-8 Q 10,-10 8,-8 Z" fill="none" stroke="#999" stroke-width="2"/>
        <text x="0" y="25" font-family="-apple-system, sans-serif" font-size="10" fill="#999" text-anchor="middle">Calls</text>
      </g>
    </g>
  </g>
  
  <!-- Phone Side Buttons -->
  <rect x="5" y="150" width="5" height="40" rx="2" fill="#0a0a0a"/>
  <rect x="5" y="220" width="5" height="60" rx="2" fill="#0a0a0a"/>
  <rect x="5" y="290" width="5" height="60" rx="2" fill="#0a0a0a"/>
  
  <rect x="390" y="220" width="5" height="80" rx="2" fill="#0a0a0a"/>
</svg>
